<svg width="24" height="24" viewBox="0 0 80 80" fill="none" xmlns="http://www.w3.org/2000/svg">
<path d="M79.222 32.166H76V32H40V48H62.606C59.308 57.314 50.446 64 40 64C26.746 64 16 53.254 16 40C16 26.746 26.746 16 40 16C46.118 16 51.684 18.308 55.922 22.078L67.236 10.764C60.092 4.106 50.536 0 40 0C17.91 0 0 17.91 0 40C0 62.09 17.91 80 40 80C62.09 80 80 62.09 80 40C80 37.318 79.724 34.7 79.222 32.166Z" fill="#FFC107"/>
<path d="M4.61206 21.382L17.7541 31.02C21.3101 22.216 29.9221 16 40.0001 16C46.1181 16 51.6841 18.308 55.9221 22.078L67.2361 10.764C60.0921 4.106 50.5361 0 40.0001 0C24.6361 0 11.3121 8.674 4.61206 21.382Z" fill="#FF3D00"/>
<path d="M40 79.9999C50.332 79.9999 59.72 76.0459 66.818 69.6159L54.438 59.1399C50.2871 62.2967 45.2149 64.004 40 63.9999C29.596 63.9999 20.762 57.3659 17.434 48.1079L4.39001 58.1579C11.01 71.1119 24.454 79.9999 40 79.9999Z" fill="#4CAF50"/>
<path d="M79.222 32.166H76V32H40V48H62.606C61.0284 52.4328 58.1867 56.3064 54.432 59.142L54.438 59.138L66.818 69.614C65.942 70.41 80 60 80 40C80 37.318 79.724 34.7 79.222 32.166Z" fill="#1976D2"/>
</svg>
